<?xml version="1.0" encoding="utf-8"?>
<!-- Generator: Adobe Illustrator 25.0.1, SVG Export Plug-In . SVG Version: 6.00 Build 0)  -->
<svg version="1.1" id="图层_1" xmlns="http://www.w3.org/2000/svg" xmlns:xlink="http://www.w3.org/1999/xlink" x="0px" y="0px"
	 viewBox="0 0 103 41.5" style="enable-background:new 0 0 103 41.5;" xml:space="preserve">
<style type="text/css">
	.st0{fill:#1D1D1F;}
	.st1{fill:none;}
	.st2{font-family:'Arial-Black';}
	.st3{font-size:12px;}
</style>
<path class="st0" d="M103,35.5c-0.1,0.1-0.4,0.3-0.4,0.3c0,0-2.1,1.3-4.6,1.4c-2.6,0.2-4.9,0.3-4.9,0.3l-13,0c0,0-8.3,0-11.6,0
	c-0.9,0-1.4,0-1.4,0s0,0,0,0c-0.3,0-2.7-0.1-5.1-0.3c-2.6-0.2-4.6-1.4-4.6-1.4c-0.1,0-0.2-0.2-0.2-0.3h4v-6h2v6h1h33v-20H73v-2h24.5
	c1,0,1.5,0.5,1.5,1.5v20.5L103,35.5z M1.8,15.5V15c0-1,0.8-1.8,1.8-1.8H25v-1.8H2.5C1.1,11.5,0,12.6,0,14v3.2
	C1,17.2,1.8,16.4,1.8,15.5z M27.5,29.5H38V35c0,1.4-1.1,2.5-2.5,2.5h-33C1.1,37.5,0,36.3,0,35V17.7c1.2,0,2.2-1,2.2-2.2V15
	c0-0.7,0.6-1.2,1.2-1.2H25V27C25,28.3,26.1,29.5,27.5,29.5z M19,23.1C19,23.1,19,23.1,19,23.1C19,23.2,19,23.2,19,23.1
	c0.2,0.1,0.3,0.1,0.4,0c0.1-0.1,0.2-0.1,0.3-0.2c0.1-0.1,0.1-0.2,0.2-0.3c0-0.1,0.1-0.2,0.1-0.4v0c0,0,0,0,0,0c-0.1,0-0.2,0-0.3,0.1
	c-0.1,0.1-0.2,0.1-0.3,0.2c-0.1,0.1-0.1,0.2-0.2,0.3C19,22.8,19,23,19,23.1z M20.8,25.5c-0.2-0.1-0.3-0.2-0.4-0.4
	c-0.1-0.2-0.2-0.3-0.2-0.6c0-0.2,0-0.4,0.1-0.5c0.1-0.1,0.2-0.3,0.4-0.4c-0.1-0.1-0.2-0.3-0.4-0.3c-0.2-0.1-0.3-0.1-0.5-0.1
	c-0.1,0-0.1,0-0.2,0c-0.1,0-0.1,0-0.2,0.1c-0.1,0-0.2,0.1-0.2,0.1c-0.1,0-0.1,0-0.1,0c-0.1,0-0.2,0-0.3-0.1
	c-0.2-0.1-0.3-0.1-0.4-0.1c-0.2,0-0.3,0-0.4,0.1c-0.1,0.1-0.3,0.2-0.4,0.3c-0.1,0.1-0.2,0.3-0.2,0.4c-0.1,0.2-0.1,0.3-0.1,0.5
	c0,0.1,0,0.3,0,0.4c0,0.1,0.1,0.3,0.1,0.4c0,0.1,0.1,0.3,0.1,0.4c0.1,0.1,0.1,0.2,0.2,0.3c0.1,0.1,0.1,0.2,0.2,0.3
	c0.1,0.1,0.1,0.1,0.2,0.2c0.1,0,0.1,0.1,0.2,0.1c0,0,0.1,0,0.2,0c0,0,0.1,0,0.1,0c0.1,0,0.1,0,0.2-0.1c0.1,0,0.1,0,0.2-0.1
	c0.1,0,0.1,0,0.2,0c0.1,0,0.1,0,0.2,0c0.1,0,0.1,0,0.2,0.1c0.1,0,0.1,0,0.2,0.1c0.1,0,0.1,0,0.2,0c0.1,0,0.1,0,0.2,0
	c0.1,0,0.1-0.1,0.2-0.1c0,0,0.1-0.1,0.1-0.2c0.1-0.1,0.1-0.2,0.2-0.2c0.1-0.1,0.1-0.2,0.2-0.3C20.7,25.7,20.8,25.6,20.8,25.5z
	 M60,28.5h-4h-0.5h-13H42h-3h-0.5H38H27.5c-0.8,0-1.5-0.7-1.5-1.5V13.7v-0.5v-1.8V11v-0.5V3c0-0.8,0.7-1.5,1.5-1.5h43
	C71.3,1.5,72,2.1,72,3v9.5V13v0.5v2V16v0.5V27c0,0.8-0.7,1.5-1.5,1.5H64h-0.5H63h-2h-0.5H60z M60,26.5h0.5H61h2h0.5H64h6v-10V16
	v-0.5v-2V13v-0.5v-9H28v7V11v0.5v1.8v0.5v12.7h10h0.5H39H60z M43,29.5v8h12v-8V29H43V29.5z"/>
<path class="st1" d="M0-12.5h103v54H0V-12.5z"/>
<text transform="matrix(1 0 0 1 38 19.142)" class="st2 st3">Hl o</text>
</svg>
